<svg xmlns="http://www.w3.org/2000/svg" xmlns:svg="http://www.w3.org/2000/svg" id="svg2" width="256" height="256" version="1.0"><metadata/><g id="layer1"><path id="path2453" d="M 79.161132,140.51003 L 11.33778,103.91758 L 86.568461,118.27664 L 79.161132,140.51003 z" style="fill:#c1003f;fill-opacity:1;fill-rule:evenodd;stroke:#c1003f;stroke-width:1px;stroke-linecap:butt;stroke-linejoin:miter;stroke-opacity:1"/><path id="path2455" d="M 89.577687,112.71829 L 48.374422,45.091762 L 106.24417,98.822435 L 89.577687,112.71829 z" style="fill:#c1003f;fill-opacity:1;fill-rule:evenodd;stroke:#c1003f;stroke-width:1px;stroke-linecap:butt;stroke-linejoin:miter;stroke-opacity:1"/><path id="path2457" d="M 134.02166,93.26409 L 115.50334,16.836839 L 112.72558,95.580067 L 134.02166,93.26409 z" style="fill:#c1003f;fill-opacity:1;fill-rule:evenodd;stroke:#c1003f;stroke-width:1px;stroke-linecap:butt;stroke-linejoin:miter;stroke-opacity:1"/><path id="path2459" d="M 141.66047,94.42208 L 185.32405,29.178587 L 160.64174,104.38078 L 141.66047,94.42208 z" style="fill:#c1003f;fill-opacity:1;fill-rule:evenodd;stroke:#c1003f;stroke-width:1px;stroke-linecap:butt;stroke-linejoin:miter;stroke-opacity:1"/><path id="path2461" d="M 177.53971,130.31973 L 166.42872,110.40232 L 234.88038,79.223188 L 177.53971,130.31973 z" style="fill:#c1003f;fill-opacity:1;fill-rule:evenodd;stroke:#c1003f;stroke-width:1px;stroke-linecap:butt;stroke-linejoin:miter;stroke-opacity:1"/><path id="path3241" d="M 253.54829,146.95649 C 180.91327,134.57788 3.3912247,147.18787 5.0521749,183.5576 C 5.8818386,212.30233 118.37101,219.37995 184.52159,218.6012 C 121.91917,213.36534 74.866933,203.38605 74.078875,185.89383 C 74.927241,155.23904 156.24465,150.16883 253.54829,146.95649 z" style="fill:#4a3c7b;fill-opacity:1;fill-rule:evenodd;stroke:#4a3c7b;stroke-width:1px;stroke-linecap:butt;stroke-linejoin:miter;stroke-opacity:1"/></g></svg>