<svg xmlns="http://www.w3.org/2000/svg" xmlns:xlink="http://www.w3.org/1999/xlink" width="100" height="100" fill="none" viewBox="0 0 100 100"><linearGradient id="a"><stop offset=".18" stop-color="#0052cc"/><stop offset="1" stop-color="#2684ff"/></linearGradient><linearGradient id="b" x1="75.142" x2="54.783" y1="24.078" y2="45.323" gradientUnits="userSpaceOnUse" xlink:href="#a"/><linearGradient id="c" x1="1956.92" x2="1082.22" y1="1849.11" y2="2714.75" gradientUnits="userSpaceOnUse" xlink:href="#a"/><clipPath id="d"><path d="m0 0h100v100h-100z"/></clipPath><g clip-path="url(#d)"><path fill="#2684ff" d="m95.8224 0h-48.1546c0 5.76522 2.2902 11.2943 6.3669 15.3709 4.0766 4.0767 9.6057 6.3669 15.3709 6.3669h8.8706v8.5642c.0077 11.9946 9.7293 21.7162 21.7238 21.7238v-47.84814c0-2.30726-1.8704-4.17766-4.1776-4.17766z"/><path fill="url(#b)" d="m71.9952 23.9944h-48.1545c.0077 11.9946 9.7293 21.7162 21.7239 21.7238h8.8705v8.5921c.0154 11.9946 9.7432 21.7099 21.7378 21.7099v-47.8482c0-2.3072-1.8704-4.1776-4.1777-4.1776z"/><path fill="url(#c)" d="m48.1545 47.9724h-48.1545c0 12.0055 9.73233 21.7378 21.7378 21.7378h8.8984v8.5642c.0077 11.9837 9.7123 21.7008 21.696 21.7238v-47.8481c0-2.3073-1.8704-4.1777-4.1777-4.1777z"/></g></svg>